<svg xmlns="http://www.w3.org/2000/svg" viewBox="0 0 2053.33 2176.55"><defs><style>.cls-1{fill:#424142;}.cls-2{fill:#414042;}</style></defs><g id="Layer_1" data-name="Layer 1"><path class="cls-1" d="M389.56,1587.53V1344.86h34.18v242.67Zm64.94-99.12-26.32-100.49h-9.91v-43.06h24.27l26.31,104.24h1.37l3.42,39.31Zm9.91,0,5.13-39.31h2l26.32-104.24h24.26v43.06h-9.91l-26.32,100.49Zm52.3,99.12V1344.86h34.17v242.67Z"/><path class="cls-1" d="M666.14,1591q-28.36,0-43.92-13.67t-15.55-38.62q0-28.73,21.44-44.1t60.59-15.38a191.24,191.24,0,0,1,29,2,105.54,105.54,0,0,1,22.65,5.89l-7.52,24.61a125.17,125.17,0,0,0-22.39-3q-10.93-.42-22.39-.42-47.16,0-47.16,28.71,0,12,8.11,18.45t23,6.5q16.92,0,28.28-5.81t17-14.87a34.82,34.82,0,0,0,5.64-18.63v-19.82l10.59,46.48H719.12l5.81-5.47q0,15.73-7.27,26.23t-20.42,15.73Q684.09,1590.95,666.14,1591Zm63.91-1.71-2.39-53.66-4.78-15v-46.83q0-18.11-12.73-26.57T672.29,1438l-43.41-1.2,3.42-32.13,36.57.51q45,.69,66.74,19.4t21.79,54.6v75.54l30.76,3.76v29Z"/><path class="cls-1" d="M826.51,1587.53v-31.78h121v31.78Zm6.84-149.36v-31.79h60.49l3.42,31.79Zm33.49,149.36V1406.38h29.4l6.83,51.95v129.2Zm36.23-77.93-10.59-56.74h14q3.07-49.89,49.9-49.9,28,0,40.68,16.07t12.64,52H973.82q0-19.83-5.89-28.54t-19.06-8.72q-23.07,0-34.43,19.74T903.07,1509.6Z"/><path class="cls-1" d="M1062.76,1587.53V1331.18H1099v256.35Zm25.64-68.7v-32.47h20.5q22.56,0,37.09-7.77t22.81-25.38q8.29-17.61,12.22-46.83h37.6q-7.18,56.56-32.22,84.51t-69,27.94Zm97.07,68.7-51.62-88.18,34.18-14,62.21,102.19Z"/><path class="cls-1" d="M1355.24,1473l-25.64-22.56,10.26-11.11a80.49,80.49,0,0,0,14.86-21.53,51.45,51.45,0,0,0,5-21.36q0-9.92-6.24-15t-18.37-5h-7.69v-31.61h12.82q27,0,40.76,13.07t13.75,38.54q0,15.55-7.35,32.55t-22.55,33.59Z"/><path class="cls-1" d="M1569.1,1591q-20.5,0-35.12-1.19a193.4,193.4,0,0,1-26.75-3.94l4.1-32.81q18,2.74,31.71,4.1t26.06,1.37q27.51,0,39.9-5.38t12.39-17.18q0-8.2-4.36-12.22t-13.41-6.24l-41.7-10.59q-26.84-6.84-39.39-16.92T1510,1459.36q0-29.74,22.81-43.07t73.57-13.33q13.17,0,24.53.77t23.33,2.65l-3.76,31.45q-13.85-1.36-24.44-1.88t-20.68-.52q-30.42,0-44.09,5.22t-13.67,17q0,7.86,5.63,11.36t17.27,6.41l33.49,8.21q28.55,6.82,41.79,18.28t13.24,33.33q0,29.22-21.36,42.47T1569.1,1591Z"/><path class="cls-1" d="M61.16,2007.53V1764.86H96.71v242.67Zm31.44-75.19v-32.47h40q28,0,42.39-13.93t14.35-40.76q0-23.58-14.35-35.72t-42.39-12.13H93.29v-32.47h39.3q45.63,0,69.13,20.33t23.5,60q0,42.9-23.5,65t-69.13,22.13Z"/><path class="cls-1" d="M358.93,2011q-37.59,0-58.45-24.61T279.63,1917q0-45,20.85-69.47T358.93,1823q37.77,0,58.53,24.53T438.23,1917q0,44.77-20.77,69.38T358.93,2011Zm0-32.47q20,0,30.85-16.06T400.63,1917q0-29.57-10.85-45.55t-30.85-16q-20,0-30.85,16T317.23,1917q0,29.38,10.85,45.46T358.93,1978.48Z"/><path class="cls-1" d="M492.64,2007.53v-31.78h121v31.78Zm6.84-149.36v-31.79H560l3.41,31.79ZM533,2007.53V1826.38h29.4l6.84,51.95v129.2Zm36.24-77.93-10.6-56.74h14q3.07-49.89,49.91-49.9,28,0,40.67,16.07t12.65,52H640q0-19.83-5.9-28.54t-19-8.72q-23.07,0-34.44,19.74T569.21,1929.6Z"/><path class="cls-1" d="M713.51,1858.17v-31.79H877.57v31.79ZM759,1922.08V1771.69H795.2v150.39ZM836.9,2011q-41.19,0-59.56-17.09T759,1939.17v-30.76H795.2v29q0,21.54,10.51,31.28t34.61,9.74q8.53,0,18.11-.94t21.88-2.48l4.1,31.79q-12,2.06-23.33,3.08T836.9,2011Z"/><path class="cls-1" d="M935.75,1898.16v-31.79h167.48v31.79Zm57.08,109.37V1841.76q0-94,85.79-94a203.19,203.19,0,0,1,37.6,3.41l-3.76,31.45q-10.77-1.37-19-1.88t-15.9-.51q-48.52,0-48.53,59.81v167.48Z"/><path class="cls-1" d="M1249.24,2011q-37.59,0-58.44-24.61T1170,1917q0-45,20.85-69.47t58.44-24.53q37.77,0,58.54,24.53t20.76,69.47q0,44.77-20.76,69.38T1249.24,2011Zm0-32.47q20,0,30.85-16.06t10.85-45.46q0-29.57-10.85-45.55t-30.85-16q-20,0-30.84,16T1207.55,1917q0,29.38,10.85,45.46T1249.24,1978.48Z"/><path class="cls-1" d="M1386,1783v-31.79h56.4V1783Zm112.79,228q-31.44,0-45.45-17.09t-14-54.69v-188h36.23v186.28q0,14.36,2.74,23.42a21.53,21.53,0,0,0,10.68,13.33q7.95,4.27,23.5,4.27,14.18,0,36.23-6.49l4.1,31.78a194.26,194.26,0,0,1-54,7.18Z"/><path class="cls-1" d="M1619.21,2007.53v-31.78h72.46v31.78Zm10.25-149.36v-31.79h95v31.79Zm75.71-60.5a25.23,25.23,0,1,1,17.94-7.43A24.36,24.36,0,0,1,1705.17,1797.67Zm-16.92,209.86v-170.9h36.23v170.9Zm32.81,0v-31.78h59.13v31.78Z"/><path class="cls-1" d="M1917,2011q-37.61,0-58.45-24.61T1837.68,1917q0-45,20.85-69.47T1917,1823q37.77,0,58.53,24.53t20.77,69.47q0,44.77-20.77,69.38T1917,2011Zm0-32.47q20,0,30.85-16.06t10.85-45.46q0-29.57-10.85-45.55t-30.85-16q-20,0-30.85,16T1875.28,1917q0,29.38,10.85,45.46T1917,1978.48Z"/></g><g id="Layer_2" data-name="Layer 2"><g id="logo"><path class="cls-2" d="M492.16,0,236.58,442.94l-29.07,50.4,29.07,50.32L491.43,985.22H797.5L930.63,604.89,1142.33,0ZM735.7,850.06H573.91L368,493.34,573.91,136.63H735.7l-206,356.71Z"/><path class="cls-2" d="M1798.11,633.15,1543.26,191.51H1237.19L1104.06,571.84l-211.7,604.89h650.08l255.67-442.94,29.07-50.41ZM1460.77,1040.1H1299l206-356.72L1299,326.67h161.78l205.84,356.71Z"/></g></g></svg>