<svg xmlns="http://www.w3.org/2000/svg" viewBox="0 0 4116.98 1834.77"><defs><style>.cls-1{fill:#424142;}.cls-2{fill:#414042;}</style></defs><g id="Layer_1" data-name="Layer 1"><path class="cls-1" d="M2135.65,609.09V366.42h34.18V609.09ZM2200.59,510l-26.32-100.48h-9.91V366.42h24.27L2215,470.67h1.36l3.42,39.3Zm9.91,0,5.13-39.3h2L2244,366.42h24.27v43.07h-9.92L2232,510Zm52.3,99.12V366.42H2297V609.09Z"/><path class="cls-1" d="M2412.23,612.51q-28.36,0-43.92-13.67t-15.55-38.62q0-28.71,21.45-44.09t60.58-15.39a191.47,191.47,0,0,1,29,2,105,105,0,0,1,22.64,5.9l-7.52,24.61a124.15,124.15,0,0,0-22.39-3q-10.93-.43-22.38-.43-47.18,0-47.17,28.71,0,12,8.11,18.46t23,6.49q16.92,0,28.28-5.81t17-14.87a34.82,34.82,0,0,0,5.64-18.63V524.33l10.59,46.48h-14.35l5.81-5.47q0,15.74-7.26,26.24a43.59,43.59,0,0,1-20.43,15.72Q2430.18,612.51,2412.23,612.51Zm63.92-1.71-2.4-53.66-4.78-15V495.28q0-18.12-12.73-26.58t-37.86-9.14l-43.41-1.2,3.42-32.13,36.58.52q44.94.67,66.73,19.39t21.79,54.6v75.54l30.76,3.76v29.05Z"/><path class="cls-1" d="M2572.6,609.09V577.31h121v31.78Zm6.84-149.36V427.94h60.5l3.41,31.79Zm33.49,149.36V427.94h29.4l6.83,52V609.09Zm36.23-77.93-10.59-56.73h14q3.08-49.9,49.9-49.91,28,0,40.68,16.07t12.64,52h-35.88q0-19.82-5.9-28.54T2695,455.29q-23.08,0-34.44,19.73T2649.16,531.16Z"/><path class="cls-1" d="M2808.85,609.09V352.75h36.23V609.09Zm25.64-68.7V507.92H2855q22.56,0,37.09-7.77t22.81-25.38q8.3-17.61,12.22-46.83h37.6q-7.17,56.57-32.21,84.51t-69,27.94Zm97.07,68.7L2880,520.91l34.18-14,62.2,102.19Z"/><path class="cls-1" d="M3101.33,494.59,3075.69,472l10.26-11.1a80.53,80.53,0,0,0,14.86-21.54,51.45,51.45,0,0,0,5-21.36q0-9.91-6.24-14.95T3081.16,398h-7.69V366.42h12.82q27,0,40.76,13.07T3140.8,418q0,15.56-7.34,32.56t-22.56,33.58Z"/><path class="cls-1" d="M3315.19,612.51q-20.51,0-35.12-1.19a195,195,0,0,1-26.75-3.93l4.11-32.82q17.94,2.74,31.7,4.1t26.06,1.37q27.51,0,39.9-5.38t12.39-17.18q0-8.21-4.35-12.22T3349.71,539l-41.7-10.6q-26.84-6.84-39.39-16.92t-12.56-30.59q0-29.73,22.81-43.07t73.58-13.33q13.15,0,24.52.77t23.33,2.65l-3.76,31.45q-13.85-1.36-24.44-1.88t-20.68-.52q-30.42,0-44.09,5.22t-13.67,17q0,7.86,5.64,11.37t17.26,6.41l33.49,8.2q28.54,6.84,41.79,18.28t13.24,33.33q0,29.22-21.36,42.47T3315.19,612.51Z"/><path class="cls-1" d="M2141.12,1029.09V786.42h35.54v242.67Zm31.44-75.19V921.43h40q28,0,42.39-13.93t14.35-40.76q0-23.58-14.35-35.72t-42.39-12.13h-39.3V786.42h39.3q45.63,0,69.13,20.34t23.5,60q0,42.9-23.5,65t-69.13,22.13Z"/><path class="cls-1" d="M2438.89,1032.51q-37.6,0-58.45-24.61t-20.85-69.38q0-44.94,20.85-69.47t58.45-24.53q37.77,0,58.53,24.53t20.77,69.47q0,44.78-20.77,69.38T2438.89,1032.51Zm0-32.47q20,0,30.85-16.06t10.85-45.46q0-29.57-10.85-45.55t-30.85-16q-20,0-30.85,16t-10.85,45.55q0,29.4,10.85,45.46T2438.89,1000Z"/><path class="cls-1" d="M2572.6,1029.09V997.31h121v31.78Zm6.84-149.36V847.94h60.5l3.41,31.79Zm33.49,149.36V847.94h29.4l6.83,52v129.19Zm36.23-77.92-10.59-56.74h14q3.08-49.9,49.9-49.91,28,0,40.68,16.07t12.64,51.95h-35.88q0-19.81-5.9-28.54T2695,875.29q-23.08,0-34.44,19.73T2649.16,951.17Z"/><path class="cls-1" d="M2793.47,879.73V847.94h164.06v31.79Zm45.46,63.92V793.26h36.23V943.65Zm77.93,88.86q-41.19,0-59.56-17.09t-18.37-54.68V930h36.23V959q0,21.53,10.51,31.27t34.61,9.74q8.53,0,18.11-.94t21.88-2.48l4.1,31.79q-12,2.05-23.33,3.08T2916.86,1032.51Z"/><path class="cls-1" d="M3015.71,919.72V887.93h167.48v31.79Zm57.08,109.37V863.32q0-94,85.79-94a202.33,202.33,0,0,1,37.6,3.42l-3.76,31.44q-10.77-1.37-19-1.88t-15.9-.51q-48.54,0-48.53,59.81v167.48Z"/><path class="cls-1" d="M3329.2,1032.51q-37.59,0-58.44-24.61t-20.85-69.38q0-44.94,20.85-69.47t58.44-24.53q37.77,0,58.54,24.53t20.76,69.47q0,44.78-20.76,69.38T3329.2,1032.51Zm0-32.47q20,0,30.85-16.06t10.85-45.46q0-29.57-10.85-45.55t-30.85-16q-20,0-30.84,16t-10.86,45.55q0,29.4,10.86,45.46T3329.2,1000Z"/><path class="cls-1" d="M3466,804.53V772.75h56.4v31.78Zm112.79,228q-31.44,0-45.46-17.09t-14-54.68v-188h36.23V959q0,14.36,2.74,23.41A21.53,21.53,0,0,0,3569,995.77q7.93,4.28,23.5,4.27,14.17,0,36.23-6.49l4.1,31.79a194.75,194.75,0,0,1-54,7.17Z"/><path class="cls-1" d="M3699.16,1029.09V997.31h72.47v31.78Zm10.26-149.36V847.94h95v31.79Zm75.71-60.5a25.23,25.23,0,1,1,17.94-7.43A24.35,24.35,0,0,1,3785.13,819.23Zm-16.92,209.86V858.2h36.23v170.89Zm32.81,0V997.31h59.13v31.78Z"/><path class="cls-1" d="M3996.94,1032.51q-37.61,0-58.45-24.61t-20.85-69.38q0-44.94,20.85-69.47t58.45-24.53q37.77,0,58.53,24.53t20.76,69.47q0,44.78-20.76,69.38T3996.94,1032.51Zm0-32.47q20,0,30.85-16.06t10.85-45.46q0-29.57-10.85-45.55t-30.85-16q-20,0-30.85,16t-10.85,45.55q0,29.4,10.85,45.46T3996.94,1000Z"/></g><g id="Layer_2" data-name="Layer 2"><g id="logo"><path class="cls-2" d="M492.16,0,236.58,442.94l-29.07,50.4,29.07,50.32L491.43,985.22H797.5L930.63,604.89,1142.33,0ZM735.7,850.06H573.91L368,493.34,573.91,136.63H735.7l-206,356.71Z"/><path class="cls-2" d="M1798.11,633.15,1543.26,191.51H1237.19L1104.06,571.84l-211.7,604.89h650.08l255.67-442.94,29.07-50.41ZM1460.77,1040.1H1299l206-356.72L1299,326.67h161.78l205.84,356.71Z"/></g></g></svg>